Coordinates
version=1
nRows=13
nColumns=40
inDegrees=yes

Units are S.I. units (second, meters, Newtons, ...)
If the header above contains a line with 'inDegrees', this indicates whether rotational values are in degrees (yes) or radians (no).

endheader
time	pelvis_tilt	pelvis_list	pelvis_rotation	pelvis_tx	pelvis_ty	pelvis_tz	hip_flexion_r	hip_adduction_r	hip_rotation_r	knee_angle_r	knee_angle_r_beta	ankle_angle_r	subtalar_angle_r	mtp_angle_r	hip_flexion_l	hip_adduction_l	hip_rotation_l	knee_angle_l	knee_angle_l_beta	ankle_angle_l	subtalar_angle_l	mtp_angle_l	lumbar_extension	lumbar_bending	lumbar_rotation	arm_flex_r	arm_add_r	arm_rot_r	elbow_flex_r	pro_sup_r	wrist_flex_r	wrist_dev_r	arm_flex_l	arm_add_l	arm_rot_l	elbow_flex_l	pro_sup_l	wrist_flex_l	wrist_dev_l
      0.00000000	    -71.17507133	     64.02206986	    -89.95109302	      0.82344667	      0.59749229	     -0.29625652	     45.50389968	     -9.74397678	      0.00000000	     60.26961243	      1.05190318	     -4.81598206	      0.00000000	      0.00000000	     45.50389968	     -9.74397678	      0.00000000	     60.26961243	      1.05190318	     -4.81598206	      0.00000000	      0.00000000	     12.38541624	     89.85741796	    -34.11387927	     -3.82342486	    -35.11698505	     28.20230830	    102.66860149	     87.11447192	      0.00000000	      0.00000000	      5.86400615	    -36.16914116	     45.06105475	     93.03959263	     89.17112743	      0.00000000	      0.00000000
      0.00500000	    -71.17589637	     64.03181947	    -89.95107668	      0.82346628	      0.59749065	     -0.29628893	     45.50375310	     -9.74423842	      0.00000000	     60.26955118	      1.05190211	     -4.81622762	      0.00000000	      0.00000000	     45.50375310	     -9.74423842	      0.00000000	     60.26955118	      1.05190211	     -4.81622762	      0.00000000	      0.00000000	     12.39388316	     89.85807994	    -34.11403654	     -3.81358362	    -35.12002788	     28.21162902	    102.67349154	     87.11581406	      0.00000000	      0.00000000	      5.85867605	    -36.16510523	     45.05268708	     93.04306722	     89.17348837	      0.00000000	      0.00000000
      0.01000000	    -71.17629083	     64.04117178	    -89.95117327	      0.82348260	      0.59749926	     -0.29630002	     45.50343972	     -9.74479719	      0.00000000	     60.26942022	      1.05189982	     -4.81675178	      0.00000000	      0.00000000	     45.50343972	     -9.74479719	      0.00000000	     60.26942022	      1.05189982	     -4.81675178	      0.00000000	      0.00000000	     12.40268903	     89.85905412	    -34.11121243	     -3.82657738	    -35.12570279	     28.23485463	    102.69209380	     87.11858844	      0.00000000	      0.00000000	      5.85159398	    -36.13917781	     45.02248056	     93.01287994	     89.19478188	      0.00000000	      0.00000000
      0.01500000	    -71.17788819	     64.05254707	    -89.95135393	      0.82347959	      0.59750374	     -0.29637944	     45.50335743	     -9.74494372	      0.00000000	     60.26938582	      1.05189922	     -4.81688918	      0.00000000	      0.00000000	     45.50335743	     -9.74494372	      0.00000000	     60.26938582	      1.05189922	     -4.81688918	      0.00000000	      0.00000000	     12.40687755	     89.85604391	    -34.11683998	     -3.80641690	    -35.08647115	     28.22669024	    102.66491409	     87.11623526	      0.00000000	      0.00000000	      5.83228043	    -36.16140421	     45.03430496	     93.04229498	     89.15321768	      0.00000000	      0.00000000
      0.02000000	    -71.18250193	     64.05685720	    -89.95130976	      0.82348979	      0.59750934	     -0.29637395	     45.50297988	     -9.74561551	      0.00000000	     60.26922803	      1.05189647	     -4.81751880	      0.00000000	      0.00000000	     45.50297988	     -9.74561551	      0.00000000	     60.26922803	      1.05189647	     -4.81751880	      0.00000000	      0.00000000	     12.41595662	     89.85979624	    -34.11266048	     -3.82375936	    -35.11220444	     28.23999567	    102.69978949	     87.11705342	      0.00000000	      0.00000000	      5.83082328	    -36.13449990	     44.98722473	     93.00510847	     89.19926801	      0.00000000	      0.00000000
      0.02500000	    -71.18177488	     64.06694083	    -89.95137922	      0.82348740	      0.59750498	     -0.29644414	     45.50289861	     -9.74575989	      0.00000000	     60.26919405	      1.05189587	     -4.81765404	      0.00000000	      0.00000000	     45.50289861	     -9.74575989	      0.00000000	     60.26919405	      1.05189587	     -4.81765404	      0.00000000	      0.00000000	     12.41999911	     89.85654334	    -34.11846985	     -3.80315992	    -35.07060094	     28.23090578	    102.67102728	     87.11457717	      0.00000000	      0.00000000	      5.81210250	    -36.15225899	     45.00162281	     93.04155576	     89.15360824	      0.00000000	      0.00000000
      0.03000000	    -71.18286143	     64.07353052	    -89.95129733	      0.82350472	      0.59749223	     -0.29647013	     45.50281068	     -9.74591605	      0.00000000	     60.26915729	      1.05189523	     -4.81780029	      0.00000000	      0.00000000	     45.50281068	     -9.74591605	      0.00000000	     60.26915729	      1.05189523	     -4.81780029	      0.00000000	      0.00000000	     12.42519324	     89.85631037	    -34.12292835	     -3.79270088	    -35.05796087	     28.22736500	    102.64964924	     87.11363512	      0.00000000	      0.00000000	      5.80470943	    -36.15373625	     45.00603980	     93.06539707	     89.15585745	      0.00000000	      0.00000000
      0.03500000	    -71.18579275	     64.07683536	    -89.95127692	      0.82350322	      0.59748742	     -0.29648900	     45.50271960	     -9.74607774	      0.00000000	     60.26911920	      1.05189457	     -4.81795170	      0.00000000	      0.00000000	     45.50271960	     -9.74607774	      0.00000000	     60.26911920	      1.05189457	     -4.81795170	      0.00000000	      0.00000000	     12.43115538	     89.85631882	    -34.12653909	     -3.78702270	    -35.05411429	     28.22518014	    102.64079619	     87.11294014	      0.00000000	      0.00000000	      5.79875536	    -36.15546630	     45.00157912	     93.07619237	     89.15619182	      0.00000000	      0.00000000
      0.04000000	    -71.18449786	     64.07939839	    -89.95133229	      0.82351038	      0.59748363	     -0.29652160	     45.50263023	     -9.74623632	      0.00000000	     60.26908184	      1.05189392	     -4.81810015	      0.00000000	      0.00000000	     45.50263023	     -9.74623632	      0.00000000	     60.26908184	      1.05189392	     -4.81810015	      0.00000000	      0.00000000	     12.43570411	     89.85655893	    -34.13158543	     -3.78302765	    -35.04371732	     28.22734733	    102.63397347	     87.11389854	      0.00000000	      0.00000000	      5.79401464	    -36.15375827	     44.99605232	     93.08209830	     89.15549295	      0.00000000	      0.00000000
      0.04500000	    -71.18911105	     64.06473219	    -89.95135380	      0.82351693	      0.59748523	     -0.29645469	     45.50230017	     -9.74682153	      0.00000000	     60.26894385	      1.05189151	     -4.81864781	      0.00000000	      0.00000000	     45.50230017	     -9.74682153	      0.00000000	     60.26894385	      1.05189151	     -4.81864781	      0.00000000	      0.00000000	     12.43879694	     89.86075182	    -34.13410748	     -3.80921071	    -35.08855334	     28.25056111	    102.69244429	     87.11944224	      0.00000000	      0.00000000	      5.80719587	    -36.10884226	     44.94886045	     93.01602048	     89.19726751	      0.00000000	      0.00000000
      0.05000000	    -71.18796601	     64.07252439	    -89.95142800	      0.82350398	      0.59748002	     -0.29650644	     45.50221923	     -9.74696486	      0.00000000	     60.26890999	      1.05189092	     -4.81878187	      0.00000000	      0.00000000	     45.50221923	     -9.74696486	      0.00000000	     60.26890999	      1.05189092	     -4.81878187	      0.00000000	      0.00000000	     12.44167494	     89.85726406	    -34.14107507	     -3.79059764	    -35.05423542	     28.24080921	    102.66270602	     87.11749880	      0.00000000	      0.00000000	      5.79016542	    -36.12825158	     44.96629323	     93.05060742	     89.15377845	      0.00000000	      0.00000000
      0.05500000	    -71.19252064	     64.05790888	    -89.95139858	      0.82349108	      0.59748849	     -0.29645846	     45.50184777	     -9.74762205	      0.00000000	     60.26875467	      1.05188821	     -4.81939632	      0.00000000	      0.00000000	     45.50184777	     -9.74762205	      0.00000000	     60.26875467	      1.05188821	     -4.81939632	      0.00000000	      0.00000000	     12.44209398	     89.86119866	    -34.14571925	     -3.80611259	    -35.08435215	     28.25847253	    102.69248635	     87.12025870	      0.00000000	      0.00000000	      5.80080385	    -36.10305449	     44.93971713	     93.01573683	     89.20014934	      0.00000000	      0.00000000
      0.06000000	    -71.19089300	     64.06616388	    -89.95148164	      0.82349504	      0.59748647	     -0.29651728	     45.50176688	     -9.74776495	      0.00000000	     60.26872083	      1.05188761	     -4.81952986	      0.00000000	      0.00000000	     45.50176688	     -9.74776495	      0.00000000	     60.26872083	      1.05188761	     -4.81952986	      0.00000000	      0.00000000	     12.44596986	     89.85790924	    -34.15172625	     -3.78505502	    -35.05230684	     28.24819135	    102.65982270	     87.11816498	      0.00000000	      0.00000000	      5.78839096	    -36.12058807	     44.95626166	     93.05248973	     89.15404571	      0.00000000	      0.00000000
